# xmcd
#
# Track frame offsets:
#	150
#	11663
#	23101
#	31548
#	46759
#	61927
#	73534
#	85059
#	98958
#	112827
#	126989
#	140948
#	156919
#	172803
#	189413
#	205833
#	220176
#	234371
#	250673
#	266935
#	281506
#	296075
#	299939
#	302932
#	308417
#	311726
#	315263
#	319149
#	321993
#	324827
#	327632
#	330443
#	333694
#	337020
#	339579
#
# Disc length: 4658 seconds
#
# Revision: 1
# Processed by: cddbd v1.5.2PL0 Copyright (c) Steve Scherf et al.
# Submitted via: audiograbber 1.83.01
#
DISCID=0e123023
DTITLE=Dieter Kropp - Blues Harp Songbook
DYEAR=1900
DGENRE=Other
TTITLE0=Nice&Easy komplett
TTITLE1=Nice&Easy Playalong
TTITLE2=Warm up!
TTITLE3=Reed Style komlpett
TTITLE4=Reed Style Playalong
TTITLE5=Cross Harping komplett
TTITLE6=Cross Harping Playalong
TTITLE7=Coffee Break Blues komplett
TTITLE8=Coffee Break Blues Playalong
TTITLE9=Chicago Sunrise komplett
TTITLE10=Chicago Sunrise Playalong
TTITLE11=Walkin' The Smooth Walk kompl.
TTITLE12=Walkin' The Smooth Walk Playalong
TTITLE13=4 a. m. komplett
TTITLE14=4 a. m. Playalong
TTITLE15=Mumbo Jumbo komplett
TTITLE16=Mumbo Jumbo Playalong
TTITLE17=The Stuff To Watch komplett
TTITLE18=The Stuff To Watch Playalong
TTITLE19=the fabulous barbecue kompl.
TTITLE20=the fabulous barbecue Playalong
TTITLE21=Bending-Uebung 1 K 1 ziehen
TTITLE22=Bending-Uebung 2 k 2 ziehen
TTITLE23=Bending-Uebung 3 K 3 ziehen
TTITLE24=Bending-Uebung 4
TTITLE25=Bending-Uebung 5
TTITLE26=Bending-Uebung 1
TTITLE27=Bending-Uebung 2
TTITLE28=Bending-Uebung 3
TTITLE29=Bending-Uebung 4
TTITLE30=Bending-Uebung 5
TTITLE31=Bending-Uebung 6
TTITLE32=Bending-Uebung 7
TTITLE33=Bending-Uebung 8
TTITLE34=Krop's Harmonica Train
EXTD=Blues Harp Songook mit CD zum amhören und mitspielen.\nÜbungsbuch.
EXTT0=
EXTT1=
EXTT2=
EXTT3=
EXTT4=
EXTT5=
EXTT6=
EXTT7=
EXTT8=
EXTT9=
EXTT10=
EXTT11=
EXTT12=
EXTT13=
EXTT14=
EXTT15=
EXTT16=
EXTT17=
EXTT18=
EXTT19=
EXTT20=
EXTT21=
EXTT22=
EXTT23=
EXTT24=
EXTT25=
EXTT26=
EXTT27=
EXTT28=
EXTT29=
EXTT30=
EXTT31=
EXTT32=
EXTT33=
EXTT34=
PLAYORDER=
